nColumns=19
nRows=59
DataType=double
version=3
OpenSimVersion=4.1
endheader
time	ground_force_calcn_r_vx	ground_force_calcn_r_vy	ground_force_calcn_r_vz	ground_force_calcn_r_px	ground_force_calcn_r_py	ground_force_calcn_r_pz	ground_force_calcn_r_mx	ground_force_calcn_r_my	ground_force_calcn_r_mz	ground_force_calcn_l_vx	ground_force_calcn_l_vy	ground_force_calcn_l_vz	ground_force_calcn_l_px	ground_force_calcn_l_py	ground_force_calcn_l_pz	ground_force_calcn_l_mx	ground_force_calcn_l_my	ground_force_calcn_l_mz
2.36667	50.5997	1760.93	62.1206	0.856076	0	-0.343791	0.16842	5.86123	0.206767	0	0	0	0	0	0	0	0	0
2.375	79.57	1636.99	60.4412	0.8352	0	-0.340994	0.370622	7.62477	0.281524	0	0	0	0	0	0	0	0	0
2.38333	106.061	1482.11	61.5252	0.814625	0	-0.338788	0.437443	6.11289	0.253758	0	0	0	0	0	0	0	0	0
2.39167	132.73	1301.07	61.4717	0.792461	0	-0.338547	0.467108	4.57875	0.216333	0	0	0	0	0	0	0	0	0
2.4	153.866	1102.35	62.5506	0.768884	0	-0.339465	0.275959	1.97708	0.112185	0	0	0	0	0	0	0	0	0
2.40833	166.358	892.335	66.9576	0.74294	0	-0.340419	-0.648408	-3.47801	-0.260977	0	0	0	0	0	0	0	0	0
2.41667	174.116	677.978	69.9406	0.710689	0	-0.341618	-2.21967	-8.643	-0.891617	0	0	0	0	0	0	0	0	0
2.425	172.154	475.634	63.8844	0.672096	0	-0.342677	-2.90921	-8.03769	-1.07957	0	0	0	0	0	0	0	0	0
2.43333	148.564	304.817	47.8898	0.636223	0	-0.338578	-0.901265	-1.84918	-0.290524	0	0	0	0	0	0	0	0	0
2.44167	105.92	177.532	29.4443	0.620306	0	-0.320071	2.38336	3.99472	0.662538	0	0	0	0	0	0	0	0	0
2.45	61.2468	96.8403	16.3088	0.651848	0	-0.280456	3.49928	5.53288	0.931788	0	0	0	0	0	0	0	0	0
2.45833	28.9403	51.9927	9.63693	0.712646	0	-0.235699	1.82983	3.28737	0.60932	0	0	0	0	0	0	0	0	0
2.46667	11.3414	26.6398	5.83788	0.707863	0	-0.210791	-0.0804166	-0.18889	-0.0413936	0	0	0	0	0	0	0	0	0
2.475	3.12413	11.9985	2.58626	-0.000615272	0	-0.00139625	8.13785e-19	3.12541e-18	6.73679e-19	0	0	0	0	0	0	0	0	0
2.48333	0	0	0	0	0	0	0	0	0	0	0	0	0	0	0	0	0	0
2.49167	0	0	0	0	0	0	0	0	0	0	0	0	0	0	0	0	0	0
2.5	0	0	0	0	0	0	0	0	0	0	0	0	0	0	0	0	0	0
2.50833	0.941794	10.2257	2.46607	-0.000615638	0	-0.00139705	-0	-0	-0	0	0	0	0	0	0	0	0	0
2.51667	0	0	0	0	0	0	0	0	0	0	0	0	0	0	0	0	0	0
2.525	0	0	0	0	0	0	0	0	0	0	0	0	0	0	0	0	0	0
2.53333	0	0	0	0	0	0	0	0	0	0	0	0	0	0	0	0	0	0
2.54167	0	0	0	0	0	0	0	0	0	0	0	0	0	0	0	0	0	0
2.55	0	0	0	0	0	0	0	0	0	0	0	0	0	0	0	0	0	0
2.55833	0	0	0	0	0	0	0	0	0	0	0	0	0	0	0	0	0	0
2.56667	0	0	0	0	0	0	0	0	0	-0.272361	15.0206	-3.97071	1.03762	0	-0.204283	0.0848779	-4.68097	1.23742
2.575	0	0	0	0	0	0	0	0	0	-5.09754	36.9395	-8.03955	1.04904	0	-0.281795	0.342951	-2.4852	0.540882
2.58333	0	0	0	0	0	0	0	0	0	-14.1779	102.566	-13.726	1.08387	0	-0.326046	-0.0163186	0.118053	-0.0157985
2.59167	0	0	0	0	0	0	0	0	0	-28.9362	260.132	-20.225	1.10087	0	-0.334544	-0.0342929	0.308288	-0.0239691
2.6	0	0	0	0	0	0	0	0	0	-52.1691	547.696	-25.0942	1.10169	0	-0.331853	0.429665	-4.51083	0.206676
2.60833	0	0	0	0	0	0	0	0	0	-87.66	919.271	-27.6269	1.09476	0	-0.326681	1.10082	-11.5441	0.346935
2.61667	0	0	0	0	0	0	0	0	0	-131.581	1225.07	-32.4097	1.08392	0	-0.322429	1.30798	-12.1778	0.322168
2.625	0	0	0	0	0	0	0	0	0	-171.433	1359.48	-45.6604	1.06998	0	-0.321921	0.068921	-0.546552	0.0183568
2.63333	0	0	0	0	0	0	0	0	0	-197.848	1381.11	-64.1193	1.05243	0	-0.326404	-2.38655	16.6598	-0.773443
2.64167	0	0	0	0	0	0	0	0	0	-207.881	1410.27	-72.1063	1.03034	0	-0.331257	-3.47902	23.6017	-1.20674
2.65	0	0	0	0	0	0	0	0	0	-198.247	1499.17	-57.9609	1.00453	0	-0.330857	-1.56606	11.8427	-0.457864
2.65833	0	0	0	0	0	0	0	0	0	-167.158	1621.35	-30.7015	0.977527	0	-0.327987	0.902768	-8.75641	0.165809
2.66667	0	0	0	0	0	0	0	0	0	-121.184	1722.55	-11.1593	0.951096	0	-0.328146	1.36229	-19.3642	0.125448
2.675	0	0	0	0	0	0	0	0	0	-72.2642	1772.17	-7.38092	0.925596	0	-0.331647	0.549177	-13.4677	0.0560918
2.68333	0	0	0	0	0	0	0	0	0	-30.1764	1776.08	-7.73783	0.901113	0	-0.335101	0.0523576	-3.08158	0.0134255
2.69167	0	0	0	0	0	0	0	0	0	1.42777	1751.79	0.104775	0.877687	0	-0.336148	-0.00165264	-2.02769	-0.000121277
2.7	0	0	0	0	0	0	0	0	0	28.9721	1700.87	12.1081	0.855163	0	-0.336005	-0.161011	-9.45252	-0.0672906
2.70833	0	0	0	0	0	0	0	0	0	58.7755	1613.5	14.9989	0.83273	0	-0.337141	-0.513817	-14.1052	-0.13112
2.71667	0	0	0	0	0	0	0	0	0	89.5244	1490.93	4.73238	0.809665	0	-0.339446	-0.635692	-10.5867	-0.0336036
2.725	0	0	0	0	0	0	0	0	0	115.779	1345.61	-9.84523	0.786948	0	-0.340469	-0.404778	-4.70443	0.0344202
2.73333	0	0	0	0	0	0	0	0	0	135.293	1183.6	-20.2886	0.765383	0	-0.338717	-0.3398	-2.97271	0.0509564
2.74167	0	0	0	0	0	0	0	0	0	150.494	998.978	-27.9092	0.742771	0	-0.335343	-0.493221	-3.27399	0.0914679
2.75	0	0	0	0	0	0	0	0	0	161.634	787.496	-37.4317	0.713036	0	-0.332555	0.0779245	0.379655	-0.018046
2.75833	0	0	0	0	0	0	0	0	0	163.078	565.628	-46.6472	0.671709	0	-0.330444	2.08136	7.21908	-0.595355
2.76667	0	0	0	0	0	0	0	0	0	146.494	369.424	-47.4642	0.62711	0	-0.32672	3.80405	9.59294	-1.23252
2.775	0	0	0	0	0	0	0	0	0	112.7	224.939	-36.3702	0.599682	0	-0.324743	2.09949	4.19039	-0.677542
2.78333	0	0	0	0	0	0	0	0	0	73.0499	131.432	-19.9654	0.614048	0	-0.334764	-2.17812	-3.91891	0.595305
2.79167	0	0	0	0	0	0	0	0	0	39.498	71.3841	-8.31351	0.675519	0	-0.358687	-4.64732	-8.39902	0.978164
2.8	0	0	0	0	0	0	0	0	0	18.1273	32.5723	-4.68151	0.736	0	-0.381925	-3.69009	-6.63057	0.95299
2.80833	0	0	0	0	0	0	0	0	0	7.15515	12.9237	-4.12664	-0.000614493	0	-0.00139569	-0	-0	0
2.81667	0	0	0	0	0	0	0	0	0	0	0	0	0	0	0	0	0	0
2.825	0	0	0	0	0	0	0	0	0	0	0	0	0	0	0	0	0	0
2.83333	0	0	0	0	0	0	0	0	0	0	0	0	0	0	0	0	0	0
2.84167	0	0	0	0	0	0	0	0	0	0	0	0	0	0	0	0	0	0
2.85	0	0	0	0	0	0	0	0	0	0	0	0	0	0	0	0	0	0
